<svg width="32" height="32" viewBox="0 0 32 32" fill="none" xmlns="http://www.w3.org/2000/svg">
<rect width="32" height="32" fill="white"/>
<path d="M23.2922 11.9566C21.6544 11.953 20.0723 12.5345 18.8465 13.5904L22.4152 9.63193L22.424 7.56708L22.4152 7.5593L14.9225 15.9618C15.5189 14.5264 15.5705 12.9315 15.0681 11.4624C14.5656 9.99342 13.542 8.74616 12.1803 7.94385C10.8186 7.14155 9.20772 6.83656 7.63591 7.08347C6.06409 7.33037 4.63393 8.11306 3.60133 9.29147C2.56874 10.4699 2.0011 11.9671 2 13.5152C1.9989 15.0634 2.5644 16.5614 3.59532 17.7412C4.62623 18.921 6.05528 19.7056 7.62674 19.9546C9.1982 20.2036 10.8095 19.9008 12.1724 19.1003L8.8605 22.8784H10.7073L17.623 14.9885C16.827 16.2114 16.4718 17.657 16.6134 19.0976C16.755 20.5383 17.3853 21.8923 18.4051 22.9464C19.425 24.0006 20.7764 24.695 22.2467 24.9204C23.717 25.1458 25.2226 24.8894 26.5265 24.1915C27.8304 23.4936 28.8587 22.3938 29.4493 21.0654C30.0399 19.737 30.1593 18.2553 29.7889 16.8536C29.4184 15.4519 28.579 14.2098 27.4029 13.3228C26.2267 12.4359 24.7806 11.9544 23.2922 11.9543V11.9566Z" fill="black"/>
</svg>
