<svg width="256" height="256" viewBox="0 0 256 256" fill="none" xmlns="http://www.w3.org/2000/svg">
<rect width="256" height="256" fill="white"/>
<path d="M192.067 92.5082C177.678 92.4766 163.778 97.5802 153.008 106.85L184.362 72.1025L184.439 53.9777L184.362 53.9094L118.533 127.665C123.773 115.065 124.226 101.065 119.812 88.1704C115.398 75.2755 106.405 64.3274 94.4412 57.2849C82.4777 50.2425 68.325 47.5654 54.5155 49.7327C40.7059 51.9 28.1409 58.7702 19.0689 69.114C9.99678 79.4579 5.0097 92.6002 5.00001 106.189C4.99032 119.778 9.95868 132.927 19.016 143.283C28.0733 153.639 40.6285 160.527 54.4349 162.713C68.2413 164.898 82.3979 162.24 94.3714 155.214L65.2744 188.377H81.4996L142.26 119.122C135.266 129.856 132.145 142.544 133.389 155.19C134.633 167.836 140.171 179.721 149.131 188.974C158.091 198.227 169.964 204.323 182.882 206.301C195.799 208.28 209.027 206.029 220.483 199.903C231.939 193.777 240.972 184.124 246.161 172.463C251.35 160.802 252.4 147.796 249.145 135.493C245.89 123.189 238.516 112.286 228.182 104.501C217.849 96.715 205.144 92.489 192.067 92.4877V92.5082Z" fill="black"/>
</svg>
